<?xml version="1.0" encoding="UTF-8"?> <!-- Generator: Adobe Illustrator 23.0.4, SVG Export Plug-In . SVG Version: 6.00 Build 0) --> <svg xmlns="http://www.w3.org/2000/svg" xmlns:xlink="http://www.w3.org/1999/xlink" x="0px" y="0px" viewBox="0 0 200 55" style="enable-background:new 0 0 200 55;" xml:space="preserve"> <style type="text/css"> .st0{fill:#FFFFFF;} </style> <g id="katman_2"> </g> <g id="katman_1"> <g id="XMLID_1315_" transform="matrix( 1, 0, 0, 1, 0,0) "> <g id="XMLID_1316_"> <g id="Layer0_0_FILL_7_"> <path id="XMLID_1317_" class="st0" d="M47.2,27.8c0-3.1-0.6-6-1.8-8.9c-1.1-2.7-2.8-5.1-4.9-7.2c-1.5-1.5-3.2-2.8-5.1-3.8 c-0.7-0.4-1.4-0.7-2.1-1C30.5,5.6,27.5,5,24.4,5s-6,0.6-8.9,1.8c-0.7,0.3-1.5,0.7-2.2,1c-1.9,1-3.6,2.3-5.1,3.8 c-2.1,2.1-3.7,4.5-4.9,7.2c-1.2,2.8-1.8,5.8-1.8,8.9s0.6,6.1,1.8,8.9c1.1,2.7,2.8,5.1,4.9,7.2C9.4,45,10.7,46,12,46.9 c1.1,0.7,2.2,1.3,3.4,1.8c2.8,1.2,5.8,1.8,8.9,1.8s6-0.6,8.9-1.8c1.2-0.5,2.3-1.1,3.4-1.8c1.4-0.9,2.7-1.9,3.8-3.1 c2.1-2.1,3.7-4.5,4.9-7.2C46.6,33.8,47.2,30.9,47.2,27.8 M39.5,12.7c2,2,3.5,4.2,4.6,6.8s1.7,5.4,1.7,8.3s-0.6,5.7-1.7,8.3 c-1.1,2.6-2.6,4.8-4.6,6.8c-1.7,1.7-3.6,3.1-5.8,4.1c-0.3,0.2-0.7,0.3-1,0.5c-2.6,1.1-5.4,1.7-8.3,1.7s-5.7-0.6-8.3-1.7 c-0.3-0.1-0.7-0.3-1-0.5c-2.1-1-4-2.4-5.7-4.1c-2-2-3.5-4.2-4.6-6.8s-1.7-5.4-1.7-8.3s0.6-5.7,1.7-8.3c1.1-2.5,2.6-4.8,4.6-6.8 s4.2-3.5,6.8-4.6c0.2-0.1,0.5-0.2,0.7-0.3c2.4-0.9,5-1.4,7.6-1.4s5.2,0.5,7.6,1.4c0.2,0.1,0.5,0.2,0.7,0.3 C35.3,9.2,37.5,10.7,39.5,12.7 M42.7,20.3c-1-2.4-2.4-4.5-4.3-6.3c-1.8-1.8-3.9-3.2-6.3-4.3c-2.5-1-5-1.6-7.7-1.6 s-5.3,0.5-7.7,1.6c-2.4,1-4.5,2.4-6.3,4.3c-1.8,1.8-3.2,3.9-4.3,6.3c-1,2.5-1.6,5-1.6,7.7s0.5,5.3,1.6,7.7 c1,2.4,2.4,4.5,4.3,6.3c1.8,1.8,3.9,3.2,6.3,4.3c0.6,0.3,1.3,0.5,1.9,0.7c1.9,0.6,3.8,0.9,5.8,0.9s3.9-0.3,5.8-0.9 c0.7-0.2,1.3-0.4,1.9-0.7c2.4-1,4.5-2.4,6.3-4.3c1.8-1.8,3.2-3.9,4.3-6.3c1-2.5,1.6-5,1.6-7.7C44.2,25.3,43.7,22.7,42.7,20.3 M34.7,24.5c1.3,0,2.3,0.4,3.2,1.1c0.9,0.8,1.3,1.7,1.3,2.7c0,1.1-0.4,2-1.3,2.7c-0.9,0.8-2,1.1-3.2,1.1c-1.3,0-2.3-0.4-3.2-1.1 c-0.9-0.8-1.3-1.7-1.3-2.7c0-1.1,0.4-2,1.3-2.7C32.4,24.9,33.5,24.5,34.7,24.5 M38.3,18.6v4.1c-8.6,0.3-12.8,2.2-12.5,5.6 c0.3,3.6,4.4,5.5,12.5,5.5v4c-6.7,0-11.8-1.1-15.1-3.4c-4.4-3.6-4.6-7.5-0.5-11.8h-4.1c0,4.9-1.1,9.9-3.3,15.1H8.6 c3.7-4,5.5-9.1,5.4-15.1H9l3.7-4C12.7,18.6,38.3,18.6,38.3,18.6z"></path> </g> </g> </g> <g id="XMLID_1447_" transform="matrix( 2.282379150390625, 0, 0, 2.282379150390625, -1833.85,-1211.8) "> <g id="XMLID_1448_"> <g id="Layer0_0_MEMBER_0_MEMBER_0_FILL_2_"> <path id="XMLID_1449_" class="st0" d="M831.5,539.3c-0.2-0.1-0.4-0.2-0.6-0.2c-0.2-0.1-0.5-0.1-0.7-0.1c-0.3,0-0.5,0-0.8,0 c-1.2,0-2.1,0.4-2.8,1.1c-0.7,0.7-1,1.7-1,3s0.3,2.3,1,3s1.6,1.1,2.8,1.1c0.3,0,0.6,0,0.9-0.1c0.2,0,0.4-0.1,0.7-0.2 c0.2,0,0.4-0.1,0.6-0.2l0.5-0.2v-1.8h-0.2l-0.3,0.3c-0.2,0.1-0.3,0.2-0.5,0.3c-0.1,0.1-0.3,0.2-0.6,0.3 c-0.2,0.1-0.5,0.1-0.7,0.1c-0.3,0-0.5,0-0.7-0.1s-0.5-0.2-0.7-0.4s-0.4-0.5-0.5-0.8s-0.2-0.8-0.2-1.2s0.1-0.9,0.2-1.2 c0.1-0.3,0.3-0.6,0.5-0.8s0.4-0.4,0.7-0.5c0.2-0.1,0.5-0.1,0.8-0.1c0.2,0,0.5,0,0.7,0.1s0.4,0.2,0.6,0.3 c0.2,0.1,0.4,0.2,0.5,0.3s0.2,0.2,0.4,0.3h0.2v-1.9L831.5,539.3z"></path> </g> </g> </g> <g id="XMLID_1442_" transform="matrix( 2.282379150390625, 0, 0, 2.282379150390625, -1833.85,-1211.8) "> <g id="XMLID_1443_"> <g id="Layer0_0_MEMBER_0_MEMBER_1_FILL_2_"> <path id="XMLID_1444_" class="st0" d="M838.3,539.5c-0.3-0.2-0.6-0.3-0.9-0.3c-0.4-0.1-0.7-0.1-1.1-0.1h-3.1v7.8h2V544h0.7 l2.2,2.9h2.4l-2.6-3.3c0.4-0.2,0.8-0.5,1.1-0.9s0.4-0.9,0.4-1.4c0-0.4-0.1-0.8-0.2-1C838.8,539.9,838.6,539.7,838.3,539.5 M837.1,541c0.1,0.1,0.1,0.3,0.1,0.5s0,0.4-0.1,0.5s-0.2,0.3-0.3,0.3c-0.1,0.1-0.3,0.2-0.5,0.2s-0.4,0-0.7,0H835v-2.1h1.2 c0.2,0,0.3,0,0.4,0.1C836.9,540.7,837,540.8,837.1,541z"></path> </g> </g> </g> <g id="XMLID_1439_" transform="matrix( 2.282379150390625, 0, 0, 2.282379150390625, -1833.85,-1211.8) "> <g id="XMLID_1440_"> <g id="Layer0_0_MEMBER_0_MEMBER_2_FILL_2_"> <path id="XMLID_1441_" class="st0" d="M847.3,539.1h-2.2l-1.5,2.8l-1.5-2.8h-2.2l2.7,4.6v3.2h2v-3.3L847.3,539.1z"></path> </g> </g> </g> <g id="XMLID_1434_" transform="matrix( 2.282379150390625, 0, 0, 2.282379150390625, -1833.85,-1211.8) "> <g id="XMLID_1435_"> <g id="Layer0_0_MEMBER_0_MEMBER_3_FILL_2_"> <path id="XMLID_1436_" class="st0" d="M854,541.5c0-0.4-0.1-0.8-0.2-1.2c-0.2-0.3-0.4-0.6-0.7-0.8s-0.6-0.3-0.9-0.4 c-0.3-0.1-0.7-0.1-1.2-0.1h-3v7.8h2v-2.6h1c0.3,0,0.6,0,0.8-0.1c0.3-0.1,0.5-0.1,0.6-0.2c0.2-0.1,0.4-0.2,0.5-0.3 c0.2-0.1,0.3-0.2,0.4-0.4c0.2-0.2,0.4-0.5,0.5-0.8S854,541.9,854,541.5 M850.9,540.6c0.2,0,0.3,0,0.5,0.1 c0.1,0.1,0.3,0.2,0.4,0.3c0.1,0.2,0.2,0.3,0.2,0.6c0,0.2,0,0.4-0.1,0.6c0,0.1-0.1,0.3-0.3,0.4c-0.1,0.1-0.2,0.1-0.3,0.2 c-0.1,0-0.2,0.1-0.3,0.1s-0.2,0-0.4,0H850v-2.3h0.3C850.5,540.5,850.8,540.5,850.9,540.6z"></path> </g> </g> </g> <g id="XMLID_1431_" transform="matrix( 2.282379150390625, 0, 0, 2.282379150390625, -1833.85,-1211.8) "> <g id="XMLID_1432_"> <g id="Layer0_0_MEMBER_0_MEMBER_4_FILL_2_"> <path id="XMLID_1433_" class="st0" d="M858.5,546.9v-6.3h2.3v-1.5h-6.6v1.5h2.3v6.3H858.5z"></path> </g> </g> </g> <g id="XMLID_1428_" transform="matrix( 2.282379150390625, 0, 0, 2.282379150390625, -1833.85,-1211.8) "> <g id="XMLID_1429_"> <g id="Layer0_0_MEMBER_0_MEMBER_5_FILL_2_"> <path id="XMLID_1430_" class="st0" d="M865,546.9v-6.3h2.3v-1.5h-6.6v1.5h2.3v6.3H865z"></path> </g> </g> </g> <g id="XMLID_1425_" transform="matrix( 2.282379150390625, 0, 0, 2.282379150390625, -1833.85,-1211.8) "> <g id="XMLID_1426_"> <g id="Layer0_0_MEMBER_0_MEMBER_6_FILL_2_"> <path id="XMLID_1427_" class="st0" d="M873.3,546.9v-1.5H870v-2h3.1v-1.5H870v-1.4h3.3V539H868v7.8h5.3V546.9z"></path> </g> </g> </g> <g id="XMLID_1422_" transform="matrix( 2.282379150390625, 0, 0, 2.282379150390625, -1833.85,-1211.8) "> <g id="XMLID_1423_"> <g id="Layer0_0_MEMBER_0_MEMBER_7_FILL_2_"> <path id="XMLID_1424_" class="st0" d="M880.6,541.4v-1.9l-0.5-0.2c-0.2-0.1-0.4-0.2-0.6-0.2c-0.2-0.1-0.5-0.1-0.7-0.1 s-0.5,0-0.8,0c-1.2,0-2.1,0.4-2.8,1.1c-0.7,0.7-1,1.7-1,3s0.3,2.3,1,3s1.6,1.1,2.8,1.1c0.3,0,0.6,0,0.9-0.1 c0.2,0,0.4-0.1,0.7-0.2c0.2-0.1,0.4-0.1,0.6-0.2l0.5-0.2v-1.8h-0.2l-0.3,0.3c-0.2,0.1-0.3,0.2-0.5,0.3c-0.1,0.1-0.3,0.2-0.6,0.3 c-0.2,0.1-0.5,0.1-0.7,0.1c-0.3,0-0.5,0-0.7-0.1s-0.5-0.2-0.7-0.4s-0.4-0.5-0.5-0.8s-0.2-0.7-0.2-1.2s0.1-0.9,0.2-1.2 c0.1-0.3,0.3-0.6,0.5-0.8s0.4-0.4,0.7-0.5c0.2-0.1,0.5-0.1,0.8-0.1c0.2,0,0.5,0,0.7,0.1s0.4,0.2,0.6,0.3 c0.2,0.1,0.4,0.2,0.5,0.3l0.4,0.3h-0.1V541.4z"></path> </g> </g> </g> <g id="XMLID_1419_" transform="matrix( 2.282379150390625, 0, 0, 2.282379150390625, -1833.85,-1211.8) "> <g id="XMLID_1420_"> <g id="Layer0_0_MEMBER_0_MEMBER_8_FILL_2_"> <path id="XMLID_1421_" class="st0" d="M883.7,541.9V539h-2v7.8h2v-3.5h2.7v3.5h2V539h-2v2.9H883.7z"></path> </g> </g> </g> <g id="XMLID_1334_" transform="matrix( 2.282379150390625, 0, 0, 2.282379150390625, -1833.85,-1211.8) "> <g id="XMLID_1335_"> <g id="Layer0_0_MEMBER_2_FILL_2_"> <path id="XMLID_1336_" class="st0" d="M859.3,549.7h2.2l-1.1-1.9L859.3,549.7z"></path> </g> </g> </g> </g> </svg> 